<svg width="814" height="525" viewBox="0 0 814 525" fill="none" xmlns="http://www.w3.org/2000/svg">
<path d="M1.41987 516.777C0.0391611 519.168 0.858537 522.226 3.25 523.607C5.64146 524.988 8.69942 524.168 10.0801 521.777L1.41987 516.777ZM10.0801 521.777L122.58 326.921L113.92 321.921L1.41987 516.777L10.0801 521.777Z" fill="white"/>
<path d="M306.58 8.22363C307.961 5.83217 307.141 2.77422 304.75 1.39351C302.359 0.012794 299.301 0.83217 297.92 3.22363L306.58 8.22363ZM297.92 3.22363L185.42 198.079L194.08 203.079L306.58 8.22363L297.92 3.22363Z" fill="white"/>
<path d="M91.4199 516.777C90.0392 519.168 90.8585 522.226 93.25 523.607C95.6415 524.988 98.6994 524.168 100.08 521.777L91.4199 516.777ZM100.08 521.777L212.58 326.921L203.92 321.921L91.4199 516.777L100.08 521.777Z" fill="white"/>
<path d="M396.58 8.22363C397.961 5.83217 397.141 2.77422 394.75 1.39351C392.359 0.012794 389.301 0.83217 387.92 3.22363L396.58 8.22363ZM387.92 3.22363L275.42 198.079L284.08 203.079L396.58 8.22363L387.92 3.22363Z" fill="white"/>
<mask id="path-5-outside-1_3_3753" maskUnits="userSpaceOnUse" x="109.5" y="206.979" width="705" height="111" fill="black">
<rect fill="white" x="109.5" y="206.979" width="705" height="111"/>
<path d="M157.355 208.979C164.648 208.979 171.042 210.021 176.537 212.105C182.131 214.089 184.928 216.817 184.928 220.29C184.928 223.762 183.58 228.078 180.882 233.237C178.285 238.297 176.087 240.826 174.289 240.826C173.789 240.826 173.19 240.578 172.491 240.082C171.891 239.487 170.393 238.892 167.995 238.297C165.697 237.602 163.699 237.255 162.001 237.255C156.206 237.255 151.511 239.289 147.914 243.356C144.418 247.424 142.67 253.674 142.67 262.107C142.67 270.441 144.468 276.642 148.064 280.71C151.761 284.777 156.406 286.811 162.001 286.811C164.299 286.811 166.846 286.514 169.643 285.918C172.54 285.224 174.588 284.281 175.787 283.091C175.987 282.892 176.387 282.793 176.986 282.793C177.586 282.793 178.684 283.934 180.283 286.216C181.981 288.399 183.53 291.325 184.928 294.996C186.327 298.568 187.026 301.346 187.026 303.33C187.026 307.199 184.029 310.275 178.035 312.557C172.041 314.839 164.948 315.979 156.756 315.979C143.569 315.979 132.729 311.366 124.238 302.139C115.746 292.913 111.5 279.916 111.5 263.149C111.5 246.283 115.846 233.038 124.537 223.415C133.329 213.791 144.268 208.979 157.355 208.979Z"/>
<path d="M243.004 315.979C229.017 315.979 217.579 311.416 208.687 302.288C199.896 293.161 195.5 279.866 195.5 262.405C195.5 244.845 199.946 231.55 208.837 222.522C217.828 213.494 229.367 208.979 243.453 208.979C257.64 208.979 269.078 213.444 277.77 222.373C286.461 231.203 290.807 244.646 290.807 262.703C290.807 280.66 286.362 294.054 277.47 302.884C268.579 311.614 257.09 315.979 243.004 315.979ZM243.154 237.553C238.358 237.553 234.312 239.735 231.015 244.1C227.819 248.466 226.22 254.617 226.22 262.554C226.22 270.392 227.769 276.444 230.866 280.71C233.963 284.877 238.009 286.96 243.004 286.96C248.099 286.96 252.195 284.827 255.292 280.561C258.489 276.295 260.087 270.193 260.087 262.256C260.087 254.319 258.439 248.218 255.142 243.952C251.945 239.686 247.949 237.553 243.154 237.553Z"/>
<path d="M407.737 314.64C398.845 314.64 394.4 313.648 394.4 311.664L391.253 251.988L372.97 312.408C372.571 313.598 369.174 314.194 362.78 314.194C356.387 314.194 353.09 313.648 352.89 312.557L334.008 251.393L331.91 310.771C331.811 312.259 329.912 313.301 326.216 313.896C322.52 314.392 319.423 314.64 316.925 314.64C314.527 314.64 312.18 314.491 309.882 314.194C305.087 313.499 302.739 312.259 302.839 310.473L306.285 213.742C306.285 211.361 312.379 210.17 324.568 210.17C328.164 210.17 332.56 210.468 337.755 211.063C342.95 211.559 345.847 212.601 346.446 214.188L363.23 261.066L377.916 214.039C378.815 211.46 385.708 210.17 398.595 210.17C402.292 210.17 406.687 210.468 411.783 211.063C416.977 211.559 419.575 212.501 419.575 213.89L423.921 311.515C423.921 312.606 421.973 313.4 418.076 313.896C414.18 314.392 410.734 314.64 407.737 314.64Z"/>
<path d="M543.688 314.64C534.797 314.64 530.351 313.648 530.351 311.664L527.204 251.988L508.922 312.408C508.522 313.598 505.126 314.194 498.732 314.194C492.338 314.194 489.041 313.648 488.841 312.557L469.96 251.393L467.862 310.771C467.762 312.259 465.864 313.301 462.167 313.896C458.471 314.392 455.374 314.64 452.876 314.64C450.479 314.64 448.131 314.491 445.833 314.194C441.038 313.499 438.69 312.259 438.79 310.473L442.237 213.742C442.237 211.361 448.331 210.17 460.519 210.17C464.116 210.17 468.511 210.468 473.706 211.063C478.901 211.559 481.798 212.601 482.398 214.188L499.181 261.066L513.867 214.039C514.766 211.46 521.659 210.17 534.547 210.17C538.243 210.17 542.639 210.468 547.734 211.063C552.929 211.559 555.526 212.501 555.526 213.89L559.872 311.515C559.872 312.606 557.924 313.4 554.028 313.896C550.132 314.392 546.685 314.64 543.688 314.64Z"/>
<path d="M623.444 251.69C625.342 251.69 626.291 255.163 626.291 262.107C626.291 264.191 626.042 266.671 625.542 269.548C625.142 272.326 624.343 273.715 623.144 273.715L604.113 273.715L604.113 288.597L631.686 288.597C633.384 288.597 634.533 290.78 635.133 295.145C635.432 297.03 635.582 299.064 635.582 301.247C635.582 303.33 635.283 306.058 634.683 309.431C634.084 312.805 633.085 314.491 631.686 314.491L580.436 314.491C576.64 314.491 574.742 312.954 574.742 309.878L574.742 214.188C574.742 211.609 575.89 210.319 578.188 210.319L631.836 210.319C633.934 210.319 634.983 214.734 634.983 223.564C634.983 232.294 633.934 236.66 631.836 236.66L604.113 236.66L604.113 251.69L623.444 251.69Z"/>
<path d="M730.764 311.217C730.764 313.301 726.069 314.342 716.678 314.342C707.287 314.342 702.192 313.598 701.393 312.11L676.367 265.679L676.367 311.961C676.367 313.747 671.722 314.64 662.431 314.64C653.24 314.64 648.644 313.747 648.644 311.961L648.644 212.402C648.644 210.914 652.59 210.17 660.483 210.17C663.58 210.17 667.176 210.468 671.272 211.063C675.468 211.559 678.015 212.551 678.915 214.039L702.891 259.875L702.891 213.146C702.891 211.261 707.537 210.319 716.828 210.319C726.119 210.319 730.764 211.261 730.764 213.146L730.764 311.217Z"/>
<path d="M790.921 312.11C790.921 314.094 785.976 315.087 776.086 315.087C766.195 315.087 761.25 314.094 761.25 312.11L761.25 237.404L743.268 237.404C741.569 237.404 740.37 235.122 739.671 230.558C739.371 228.375 739.221 226.143 739.221 223.861C739.221 221.579 739.371 219.347 739.671 217.164C740.37 212.601 741.569 210.319 743.268 210.319L808.454 210.319C810.152 210.319 811.351 212.601 812.05 217.164C812.35 219.347 812.5 221.579 812.5 223.861C812.5 226.143 812.35 228.375 812.05 230.558C811.351 235.122 810.152 237.404 808.454 237.404L790.921 237.404L790.921 312.11Z"/>
</mask>
<path d="M157.355 208.979C164.648 208.979 171.042 210.021 176.537 212.105C182.131 214.089 184.928 216.817 184.928 220.29C184.928 223.762 183.58 228.078 180.882 233.237C178.285 238.297 176.087 240.826 174.289 240.826C173.789 240.826 173.19 240.578 172.491 240.082C171.891 239.487 170.393 238.892 167.995 238.297C165.697 237.602 163.699 237.255 162.001 237.255C156.206 237.255 151.511 239.289 147.914 243.356C144.418 247.424 142.67 253.674 142.67 262.107C142.67 270.441 144.468 276.642 148.064 280.71C151.761 284.777 156.406 286.811 162.001 286.811C164.299 286.811 166.846 286.514 169.643 285.918C172.54 285.224 174.588 284.281 175.787 283.091C175.987 282.892 176.387 282.793 176.986 282.793C177.586 282.793 178.684 283.934 180.283 286.216C181.981 288.399 183.53 291.325 184.928 294.996C186.327 298.568 187.026 301.346 187.026 303.33C187.026 307.199 184.029 310.275 178.035 312.557C172.041 314.839 164.948 315.979 156.756 315.979C143.569 315.979 132.729 311.366 124.238 302.139C115.746 292.913 111.5 279.916 111.5 263.149C111.5 246.283 115.846 233.038 124.537 223.415C133.329 213.791 144.268 208.979 157.355 208.979Z" fill="white"/>
<path d="M243.004 315.979C229.017 315.979 217.579 311.416 208.687 302.288C199.896 293.161 195.5 279.866 195.5 262.405C195.5 244.845 199.946 231.55 208.837 222.522C217.828 213.494 229.367 208.979 243.453 208.979C257.64 208.979 269.078 213.444 277.77 222.373C286.461 231.203 290.807 244.646 290.807 262.703C290.807 280.66 286.362 294.054 277.47 302.884C268.579 311.614 257.09 315.979 243.004 315.979ZM243.154 237.553C238.358 237.553 234.312 239.735 231.015 244.1C227.819 248.466 226.22 254.617 226.22 262.554C226.22 270.392 227.769 276.444 230.866 280.71C233.963 284.877 238.009 286.96 243.004 286.96C248.099 286.96 252.195 284.827 255.292 280.561C258.489 276.295 260.087 270.193 260.087 262.256C260.087 254.319 258.439 248.218 255.142 243.952C251.945 239.686 247.949 237.553 243.154 237.553Z" fill="white"/>
<path d="M407.737 314.64C398.845 314.64 394.4 313.648 394.4 311.664L391.253 251.988L372.97 312.408C372.571 313.598 369.174 314.194 362.78 314.194C356.387 314.194 353.09 313.648 352.89 312.557L334.008 251.393L331.91 310.771C331.811 312.259 329.912 313.301 326.216 313.896C322.52 314.392 319.423 314.64 316.925 314.64C314.527 314.64 312.18 314.491 309.882 314.194C305.087 313.499 302.739 312.259 302.839 310.473L306.285 213.742C306.285 211.361 312.379 210.17 324.568 210.17C328.164 210.17 332.56 210.468 337.755 211.063C342.95 211.559 345.847 212.601 346.446 214.188L363.23 261.066L377.916 214.039C378.815 211.46 385.708 210.17 398.595 210.17C402.292 210.17 406.687 210.468 411.783 211.063C416.977 211.559 419.575 212.501 419.575 213.89L423.921 311.515C423.921 312.606 421.973 313.4 418.076 313.896C414.18 314.392 410.734 314.64 407.737 314.64Z" fill="white"/>
<path d="M543.688 314.64C534.797 314.64 530.351 313.648 530.351 311.664L527.204 251.988L508.922 312.408C508.522 313.598 505.126 314.194 498.732 314.194C492.338 314.194 489.041 313.648 488.841 312.557L469.96 251.393L467.862 310.771C467.762 312.259 465.864 313.301 462.167 313.896C458.471 314.392 455.374 314.64 452.876 314.64C450.479 314.64 448.131 314.491 445.833 314.194C441.038 313.499 438.69 312.259 438.79 310.473L442.237 213.742C442.237 211.361 448.331 210.17 460.519 210.17C464.116 210.17 468.511 210.468 473.706 211.063C478.901 211.559 481.798 212.601 482.398 214.188L499.181 261.066L513.867 214.039C514.766 211.46 521.659 210.17 534.547 210.17C538.243 210.17 542.639 210.468 547.734 211.063C552.929 211.559 555.526 212.501 555.526 213.89L559.872 311.515C559.872 312.606 557.924 313.4 554.028 313.896C550.132 314.392 546.685 314.64 543.688 314.64Z" fill="white"/>
<path d="M623.444 251.69C625.342 251.69 626.291 255.163 626.291 262.107C626.291 264.191 626.042 266.671 625.542 269.548C625.142 272.326 624.343 273.715 623.144 273.715L604.113 273.715L604.113 288.597L631.686 288.597C633.384 288.597 634.533 290.78 635.133 295.145C635.432 297.03 635.582 299.064 635.582 301.247C635.582 303.33 635.283 306.058 634.683 309.431C634.084 312.805 633.085 314.491 631.686 314.491L580.436 314.491C576.64 314.491 574.742 312.954 574.742 309.878L574.742 214.188C574.742 211.609 575.89 210.319 578.188 210.319L631.836 210.319C633.934 210.319 634.983 214.734 634.983 223.564C634.983 232.294 633.934 236.66 631.836 236.66L604.113 236.66L604.113 251.69L623.444 251.69Z" fill="white"/>
<path d="M730.764 311.217C730.764 313.301 726.069 314.342 716.678 314.342C707.287 314.342 702.192 313.598 701.393 312.11L676.367 265.679L676.367 311.961C676.367 313.747 671.722 314.64 662.431 314.64C653.24 314.64 648.644 313.747 648.644 311.961L648.644 212.402C648.644 210.914 652.59 210.17 660.483 210.17C663.58 210.17 667.176 210.468 671.272 211.063C675.468 211.559 678.015 212.551 678.915 214.039L702.891 259.875L702.891 213.146C702.891 211.261 707.537 210.319 716.828 210.319C726.119 210.319 730.764 211.261 730.764 213.146L730.764 311.217Z" fill="white"/>
<path d="M790.921 312.11C790.921 314.094 785.976 315.087 776.086 315.087C766.195 315.087 761.25 314.094 761.25 312.11L761.25 237.404L743.268 237.404C741.569 237.404 740.37 235.122 739.671 230.558C739.371 228.375 739.221 226.143 739.221 223.861C739.221 221.579 739.371 219.347 739.671 217.164C740.37 212.601 741.569 210.319 743.268 210.319L808.454 210.319C810.152 210.319 811.351 212.601 812.05 217.164C812.35 219.347 812.5 221.579 812.5 223.861C812.5 226.143 812.35 228.375 812.05 230.558C811.351 235.122 810.152 237.404 808.454 237.404L790.921 237.404L790.921 312.11Z" fill="white"/>
<path d="M157.355 208.979C164.648 208.979 171.042 210.021 176.537 212.105C182.131 214.089 184.928 216.817 184.928 220.29C184.928 223.762 183.58 228.078 180.882 233.237C178.285 238.297 176.087 240.826 174.289 240.826C173.789 240.826 173.19 240.578 172.491 240.082C171.891 239.487 170.393 238.892 167.995 238.297C165.697 237.602 163.699 237.255 162.001 237.255C156.206 237.255 151.511 239.289 147.914 243.356C144.418 247.424 142.67 253.674 142.67 262.107C142.67 270.441 144.468 276.642 148.064 280.71C151.761 284.777 156.406 286.811 162.001 286.811C164.299 286.811 166.846 286.514 169.643 285.918C172.54 285.224 174.588 284.281 175.787 283.091C175.987 282.892 176.387 282.793 176.986 282.793C177.586 282.793 178.684 283.934 180.283 286.216C181.981 288.399 183.53 291.325 184.928 294.996C186.327 298.568 187.026 301.346 187.026 303.33C187.026 307.199 184.029 310.275 178.035 312.557C172.041 314.839 164.948 315.979 156.756 315.979C143.569 315.979 132.729 311.366 124.238 302.139C115.746 292.913 111.5 279.916 111.5 263.149C111.5 246.283 115.846 233.038 124.537 223.415C133.329 213.791 144.268 208.979 157.355 208.979Z" stroke="white" stroke-width="3" mask="url(#path-5-outside-1_3_3753)"/>
<path d="M243.004 315.979C229.017 315.979 217.579 311.416 208.687 302.288C199.896 293.161 195.5 279.866 195.5 262.405C195.5 244.845 199.946 231.55 208.837 222.522C217.828 213.494 229.367 208.979 243.453 208.979C257.64 208.979 269.078 213.444 277.77 222.373C286.461 231.203 290.807 244.646 290.807 262.703C290.807 280.66 286.362 294.054 277.47 302.884C268.579 311.614 257.09 315.979 243.004 315.979ZM243.154 237.553C238.358 237.553 234.312 239.735 231.015 244.1C227.819 248.466 226.22 254.617 226.22 262.554C226.22 270.392 227.769 276.444 230.866 280.71C233.963 284.877 238.009 286.96 243.004 286.96C248.099 286.96 252.195 284.827 255.292 280.561C258.489 276.295 260.087 270.193 260.087 262.256C260.087 254.319 258.439 248.218 255.142 243.952C251.945 239.686 247.949 237.553 243.154 237.553Z" stroke="white" stroke-width="3" mask="url(#path-5-outside-1_3_3753)"/>
<path d="M407.737 314.64C398.845 314.64 394.4 313.648 394.4 311.664L391.253 251.988L372.97 312.408C372.571 313.598 369.174 314.194 362.78 314.194C356.387 314.194 353.09 313.648 352.89 312.557L334.008 251.393L331.91 310.771C331.811 312.259 329.912 313.301 326.216 313.896C322.52 314.392 319.423 314.64 316.925 314.64C314.527 314.64 312.18 314.491 309.882 314.194C305.087 313.499 302.739 312.259 302.839 310.473L306.285 213.742C306.285 211.361 312.379 210.17 324.568 210.17C328.164 210.17 332.56 210.468 337.755 211.063C342.95 211.559 345.847 212.601 346.446 214.188L363.23 261.066L377.916 214.039C378.815 211.46 385.708 210.17 398.595 210.17C402.292 210.17 406.687 210.468 411.783 211.063C416.977 211.559 419.575 212.501 419.575 213.89L423.921 311.515C423.921 312.606 421.973 313.4 418.076 313.896C414.18 314.392 410.734 314.64 407.737 314.64Z" stroke="white" stroke-width="3" mask="url(#path-5-outside-1_3_3753)"/>
<path d="M543.688 314.64C534.797 314.64 530.351 313.648 530.351 311.664L527.204 251.988L508.922 312.408C508.522 313.598 505.126 314.194 498.732 314.194C492.338 314.194 489.041 313.648 488.841 312.557L469.96 251.393L467.862 310.771C467.762 312.259 465.864 313.301 462.167 313.896C458.471 314.392 455.374 314.64 452.876 314.64C450.479 314.64 448.131 314.491 445.833 314.194C441.038 313.499 438.69 312.259 438.79 310.473L442.237 213.742C442.237 211.361 448.331 210.17 460.519 210.17C464.116 210.17 468.511 210.468 473.706 211.063C478.901 211.559 481.798 212.601 482.398 214.188L499.181 261.066L513.867 214.039C514.766 211.46 521.659 210.17 534.547 210.17C538.243 210.17 542.639 210.468 547.734 211.063C552.929 211.559 555.526 212.501 555.526 213.89L559.872 311.515C559.872 312.606 557.924 313.4 554.028 313.896C550.132 314.392 546.685 314.64 543.688 314.64Z" stroke="white" stroke-width="3" mask="url(#path-5-outside-1_3_3753)"/>
<path d="M623.444 251.69C625.342 251.69 626.291 255.163 626.291 262.107C626.291 264.191 626.042 266.671 625.542 269.548C625.142 272.326 624.343 273.715 623.144 273.715L604.113 273.715L604.113 288.597L631.686 288.597C633.384 288.597 634.533 290.78 635.133 295.145C635.432 297.03 635.582 299.064 635.582 301.247C635.582 303.33 635.283 306.058 634.683 309.431C634.084 312.805 633.085 314.491 631.686 314.491L580.436 314.491C576.64 314.491 574.742 312.954 574.742 309.878L574.742 214.188C574.742 211.609 575.89 210.319 578.188 210.319L631.836 210.319C633.934 210.319 634.983 214.734 634.983 223.564C634.983 232.294 633.934 236.66 631.836 236.66L604.113 236.66L604.113 251.69L623.444 251.69Z" stroke="white" stroke-width="3" mask="url(#path-5-outside-1_3_3753)"/>
<path d="M730.764 311.217C730.764 313.301 726.069 314.342 716.678 314.342C707.287 314.342 702.192 313.598 701.393 312.11L676.367 265.679L676.367 311.961C676.367 313.747 671.722 314.64 662.431 314.64C653.24 314.64 648.644 313.747 648.644 311.961L648.644 212.402C648.644 210.914 652.59 210.17 660.483 210.17C663.58 210.17 667.176 210.468 671.272 211.063C675.468 211.559 678.015 212.551 678.915 214.039L702.891 259.875L702.891 213.146C702.891 211.261 707.537 210.319 716.828 210.319C726.119 210.319 730.764 211.261 730.764 213.146L730.764 311.217Z" stroke="white" stroke-width="3" mask="url(#path-5-outside-1_3_3753)"/>
<path d="M790.921 312.11C790.921 314.094 785.976 315.087 776.086 315.087C766.195 315.087 761.25 314.094 761.25 312.11L761.25 237.404L743.268 237.404C741.569 237.404 740.37 235.122 739.671 230.558C739.371 228.375 739.221 226.143 739.221 223.861C739.221 221.579 739.371 219.347 739.671 217.164C740.37 212.601 741.569 210.319 743.268 210.319L808.454 210.319C810.152 210.319 811.351 212.601 812.05 217.164C812.35 219.347 812.5 221.579 812.5 223.861C812.5 226.143 812.35 228.375 812.05 230.558C811.351 235.122 810.152 237.404 808.454 237.404L790.921 237.404L790.921 312.11Z" stroke="white" stroke-width="3" mask="url(#path-5-outside-1_3_3753)"/>
</svg>
